External Loads File
version=1
nRows=69
nColumns=13
Range=5.000000e-03-10 seconds
endheader
time 	forceRightX 	forceRightY 	forceRightZ 	pointRightX 	pointRightY 	pointRightZ 	forceLeftX 	forceLeftY 	forceLeftZ 	pointLeftX 	pointLeftY 	pointLeftZ 		
2.505000 51.280346 600.085289 -0.000000 0.365564 0.462966 -0.168313 2.782679 -262.516474 -0.000000 0.193438 0.151092 -0.413941
2.510000 47.807365 625.837617 -0.000000 0.369690 0.460040 -0.168224 -3.156017 -279.188017 -0.000000 0.189472 0.154063 -0.413872
2.515000 42.721671 649.778695 -0.000000 0.373659 0.456956 -0.168107 -9.324840 -290.699275 -0.000000 0.185634 0.156945 -0.413794
2.520000 36.983063 672.230236 -0.000000 0.377726 0.453632 -0.168260 -15.260232 -297.831230 -0.000000 0.181876 0.159910 -0.413767
2.525000 30.579257 693.681273 -0.000000 0.381640 0.450179 -0.168323 -20.140578 -301.639407 -0.000000 0.178098 0.163093 -0.413816
2.530000 23.908597 714.585287 -0.000000 0.385407 0.446662 -0.168290 -23.596557 -303.225559 -0.000000 0.174244 0.166604 -0.413818
2.535000 17.850473 735.291235 -0.000000 0.389140 0.442724 -0.168410 -25.821423 -303.493890 -0.000000 0.170381 0.170503 -0.413786
2.540000 11.746040 756.040962 -0.000000 0.392728 0.438686 -0.168442 -26.680890 -303.029879 -0.000000 0.166587 0.174631 -0.413633
2.545000 5.951490 776.882196 -0.000000 0.396196 0.434568 -0.168479 -26.664872 -301.984655 -0.000000 0.162808 0.179001 -0.413424
2.550000 0.253588 797.761076 -0.000000 0.399539 0.430286 -0.168344 -26.084287 -300.243512 -0.000000 0.159253 0.183509 -0.413100
2.555000 -5.497160 818.566560 -0.000000 0.402685 0.425793 -0.168301 -25.212159 -297.573521 -0.000000 0.155888 0.187983 -0.412820
2.560000 -11.646942 839.176540 -0.000000 0.405468 0.421289 -0.168245 -24.146244 -293.814426 -0.000000 0.152727 0.192589 -0.412656
2.565000 -17.900315 859.495671 -0.000000 0.407956 0.416660 -0.167817 -23.145791 -288.972300 -0.000000 0.149675 0.197266 -0.412349
2.570000 -23.350108 879.474613 -0.000000 0.410729 0.411871 -0.167984 -22.596616 -283.211422 -0.000000 0.146838 0.202090 -0.412478
2.575000 -29.945053 898.992062 -0.000000 0.412907 0.406924 -0.167729 -21.868041 -276.850804 -0.000000 0.144188 0.206897 -0.412439
2.580000 -36.718427 917.978249 -0.000000 0.415074 0.401885 -0.167640 -21.214797 -270.135286 -0.000000 0.141651 0.211754 -0.412423
2.585000 -43.343842 936.342421 -0.000000 0.417201 0.396695 -0.167758 -20.617458 -263.274934 -0.000000 0.139358 0.216872 -0.412432
2.590000 -50.199065 953.953864 -0.000000 0.419227 0.391351 -0.167803 -19.839234 -256.422154 -0.000000 0.137130 0.221991 -0.412309
2.595000 -57.145287 970.690643 -0.000000 0.421007 0.385935 -0.167790 -18.834875 -249.688704 -0.000000 0.135170 0.227392 -0.412074
2.600000 -64.101434 986.403971 -0.000000 0.422769 0.380318 -0.167717 -17.627583 -243.185424 -0.000000 0.133384 0.232691 -0.412151
2.605000 -70.526590 1000.957533 -0.000000 0.424283 0.374575 -0.167673 -16.390851 -236.959977 -0.000000 0.131731 0.238127 -0.412128
2.610000 -76.594563 1014.180347 -0.000000 0.425632 0.368782 -0.167602 -15.079836 -230.994828 -0.000000 0.130330 0.243632 -0.412182
2.615000 -81.688298 1025.988529 -0.000000 0.426855 0.362860 -0.167529 -13.792983 -225.247120 -0.000000 0.129108 0.249192 -0.412271
2.620000 -85.049725 1036.341496 -0.000000 0.428086 0.356823 -0.167519 -12.631732 -219.699087 -0.000000 0.128032 0.254924 -0.412325
2.625000 -87.311671 1045.086360 -0.000000 0.428965 0.350702 -0.167396 -11.402521 -214.340426 -0.000000 0.127163 0.260731 -0.412403
2.630000 -87.926939 1052.166283 -0.000000 0.429755 0.344386 -0.167336 -10.220520 -209.110655 -0.000000 0.126595 0.266547 -0.412460
2.635000 -86.768311 1057.546149 -0.000000 0.430473 0.337971 -0.167452 -9.167108 -203.938026 -0.000000 0.126132 0.272422 -0.412423
2.640000 -84.936467 1061.183239 -0.000000 0.430987 0.331806 -0.167436 -8.072041 -198.786335 -0.000000 0.126034 0.278442 -0.412653
2.645000 -80.318545 1063.337565 -0.000000 0.431551 0.325279 -0.167175 -7.325086 -193.661621 -0.000000 0.126003 0.284506 -0.412606
2.650000 -74.341660 1063.956888 -0.000000 0.431533 0.318745 -0.167186 -6.664284 -188.651899 -0.000000 0.126180 0.290645 -0.412519
2.655000 -67.283634 1063.082837 -0.000000 0.431516 0.312157 -0.167112 -6.076998 -183.817511 -0.000000 0.126655 0.296693 -0.412453
2.660000 -57.959043 1060.921908 -0.000000 0.431319 0.305461 -0.166675 -5.755040 -179.155954 -0.000000 0.127266 0.302990 -0.412327
2.665000 -47.607057 1057.634327 -0.000000 0.430823 0.298754 -0.166860 -5.450219 -174.653322 -0.000000 0.128169 0.309339 -0.412261
2.670000 -37.243627 1053.496539 -0.000000 0.430241 0.292055 -0.166709 -5.035117 -170.298493 -0.000000 0.129295 0.315526 -0.412228
2.675000 -26.616254 1048.874093 -0.000000 0.429376 0.285538 -0.166502 -4.644549 -166.075991 -0.000000 0.130606 0.321820 -0.412238
2.680000 -13.162409 1044.152535 -0.000000 0.428346 0.278335 -0.166362 -4.726246 -161.956561 -0.000000 0.132184 0.328148 -0.411947
2.685000 -1.558709 1039.575634 -0.000000 0.427145 0.271577 -0.166442 -4.523856 -157.950638 -0.000000 0.133980 0.334356 -0.411767
2.690000 9.902656 1035.515145 -0.000000 0.425568 0.264874 -0.166529 -4.243117 -154.085298 -0.000000 0.136012 0.340514 -0.411676
2.695000 22.229894 1032.218871 -0.000000 0.423899 0.258235 -0.166462 -3.956906 -150.476457 -0.000000 0.138289 0.346982 -0.411745
2.700000 31.247607 1029.947924 -0.000000 0.421995 0.251629 -0.166395 -3.044008 -147.315118 -0.000000 0.140779 0.352450 -0.411855
2.705000 41.276430 1028.683859 -0.000000 0.419861 0.245124 -0.166318 -2.242977 -144.728332 -0.000000 0.143614 0.358192 -0.412388
2.710000 51.000900 1028.493296 -0.000000 0.417614 0.238554 -0.166194 -1.565889 -142.794704 -0.000000 0.146232 0.363980 -0.412425
2.715000 61.714060 1029.331390 -0.000000 0.415001 0.232067 -0.166139 -1.400647 -141.547456 -0.000000 0.149891 0.369623 -0.412801
2.720000 71.781467 1031.235635 -0.000000 0.412203 0.225739 -0.166049 -1.691865 -140.977506 -0.000000 0.153355 0.375336 -0.412535
2.725000 81.319342 1034.081751 -0.000000 0.409193 0.219603 -0.166113 -2.576849 -140.984206 -0.000000 0.157039 0.380886 -0.412707
2.730000 91.579810 1037.639726 -0.000000 0.405869 0.213533 -0.165982 -4.277671 -141.387121 -0.000000 0.161061 0.386339 -0.412788
2.735000 102.419502 1041.810818 -0.000000 0.402339 0.207504 -0.165998 -6.774712 -141.986364 -0.000000 0.165263 0.391741 -0.412897
2.740000 113.702840 1046.471474 -0.000000 0.398468 0.201765 -0.165945 -10.019665 -142.610586 -0.000000 0.169726 0.397041 -0.412941
2.745000 125.240194 1051.418775 -0.000000 0.394406 0.196090 -0.165848 -13.899882 -143.146209 -0.000000 0.174332 0.402106 -0.412909
2.750000 138.226682 1056.197514 -0.000000 0.390065 0.190622 -0.165572 -18.430999 -143.523518 -0.000000 0.179166 0.407353 -0.412875
2.755000 151.219615 1060.596864 -0.000000 0.385528 0.185382 -0.165482 -23.279153 -143.758623 -0.000000 0.184231 0.412275 -0.412844
2.760000 165.365126 1063.955300 -0.000000 0.380789 0.180056 -0.165389 -28.494067 -143.837275 -0.000000 0.189411 0.417159 -0.412740
2.765000 179.149004 1065.859556 -0.000000 0.375916 0.175133 -0.165247 -33.745395 -143.776421 -0.000000 0.194794 0.421782 -0.412734
2.770000 193.828127 1065.370629 -0.000000 0.370630 0.170421 -0.164677 -39.065833 -143.431346 -0.000000 0.200318 0.426296 -0.412604
2.775000 207.192961 1062.128614 -0.000000 0.365371 0.166014 -0.164667 -44.053629 -142.660667 -0.000000 0.205887 0.430658 -0.412407
2.780000 219.991765 1055.310321 -0.000000 0.360027 0.161667 -0.164646 -48.720766 -141.168493 -0.000000 0.211678 0.434793 -0.412388
2.785000 232.243568 1044.319065 -0.000000 0.354545 0.157692 -0.164659 -52.967478 -138.686373 -0.000000 0.217902 0.438838 -0.412796
2.790000 240.517163 1029.551476 -0.000000 0.348971 0.153814 -0.164628 -56.228858 -135.183283 -0.000000 0.223595 0.442597 -0.412021
2.795000 247.207566 1010.331621 -0.000000 0.343367 0.150200 -0.164578 -58.717438 -130.467470 -0.000000 0.229600 0.446156 -0.411694
2.800000 252.408461 986.587612 -0.000000 0.337664 0.146777 -0.164557 -60.374043 -124.621720 -0.000000 0.235750 0.449709 -0.411503
2.805000 255.076101 958.604059 -0.000000 0.331969 0.143426 -0.164511 -61.072218 -117.881770 -0.000000 0.241834 0.452870 -0.411277
2.810000 255.620851 926.321692 -0.000000 0.326340 0.140474 -0.164460 -60.931696 -110.354285 -0.000000 0.248012 0.455794 -0.411032
2.815000 254.717823 889.585928 -0.000000 0.320676 0.137738 -0.164382 -60.114731 -102.034894 -0.000000 0.254270 0.458704 -0.410856
2.820000 251.771124 848.629372 -0.000000 0.315039 0.135045 -0.164296 -58.642844 -92.924575 -0.000000 0.260466 0.461267 -0.410604
2.825000 246.989321 803.559658 -0.000000 0.309434 0.132813 -0.164166 -56.683771 -82.923247 -0.000000 0.266661 0.463727 -0.410419
2.830000 240.575312 754.586016 -0.000000 0.303840 0.130684 -0.164154 -54.473394 -71.915213 -0.000000 0.272878 0.465681 -0.410277
2.835000 233.316215 701.805427 -0.000000 0.297938 0.129001 -0.163810 -52.322811 -59.697293 -0.000000 0.279108 0.467629 -0.410220
2.840000 225.156042 645.654483 -0.000000 0.291604 0.127856 -0.164103 -50.401948 -46.025705 -0.000000 0.285278 0.469056 -0.410232
2.845000 215.006974 587.037774 -0.000000 0.285612 0.126633 -0.163850 -48.717699 -30.700910 -0.000000 0.291510 0.470218 -0.410282
